<?xml version="1.0" encoding="utf-8"?>
<svg xmlns="http://www.w3.org/2000/svg" width="200" height="200" viewBox="-60 -60 200 200">
        <g id="Layer_3" transform="rotate(-90)">
          <path fill="#274f07" d="M52.855,25.454c-0.304,0.043-1.438,0.438-3.112,0.539
            c-1.658,0.107-3.87-0.162-5.905-1.067c-1.754-0.694-3.191-1.854-4.27-2.974c-0.678-2.397-1.64-4.732-2.922-6.902
            c-5.034-8.782-14.676-12.755-21.321-12.629c-3.438-0.033-6.114,0.579-7.925,1.173c-1.561,0.276-2.968,0.918-4.019,1.891
            c-2.147,2.393-2.803,5.161-2.368,6.939c0.512,1.636,1.677,1.847,1.863,1.914c-0.182-0.081-1.312-0.39-1.672-1.96
            c-0.313-1.676,0.563-4.351,2.663-6.372c2.244-1.812,6.215-1.992,9.368-0.238c3.14,1.74,5.29,5.498,5.83,9.328
            c0.999,7.936-2.755,15.941-5.555,21.86c-1.11,2.237-2.16,4.243-3.068,5.942c0.169-1.487,0.283-2.556,0.305-2.945
            c0.381-6.076-0.794-10.387-1.322-12.082c-2.109-7.031-7.402-11.841-11.487-13.821c-4.146-2.079-7.01-2.228-7.187-1.692
            c-0.239,0.643,15.407,8.94,15.456,22.732c0.008,1.936-0.111,4.18-1.653,5.652c-1.476,1.512-4.339,2.506-6.469,1.945
            c-2.245-0.64-4.282-2.897-4.299-5.116c-0.055-2.279,2.2-3.916,4.066-4.268c1.951-0.497,3.643,0.509,3.975,1.668
            c0.414,1.104,0.26,1.837,0.309,1.824c-0.054,0.004,0.185-0.688-0.124-1.891c-0.193-1.264-2.034-2.654-4.267-2.307
            c-2.062,0.193-5.028,1.643-5.402,4.897c-0.211,3.107,1.938,6.055,4.984,7.349c3.108,1.048,6.199,0.344,8.729-1.358
            c-0.638,4.829-2.132,10.683-3.919,17.14c-2.308,8.239-5.467,17.49-7.92,27.555c-2.507,10.04-3.808,21.036-3.112,31.799
            c1.082,21.648,9.899,41.758,19.829,53.827c10.03,12.208,19.92,16.403,19.751,16.473c0.171-0.061-9.604-4.559-19.19-16.914
            c-9.507-12.226-17.622-32.302-18.108-53.487c-1.043-19.538,5.963-38.231,11.083-53.89c0.082,5.994,0.75,12.997,4.474,19.065
            c2.433,3.734,6.342,6.568,10.562,6.902c4.118,0.288,7.99-1.705,9.466-4.669c1.157-2.999,0.788-5.818-0.25-7.327
            c-1.057-1.347-2.222-1.132-2.421-1.129c0.2,0.01,1.367-0.101,2.259,1.239c0.888,1.455,1.019,4.269-0.23,6.902
            c-1.454,2.49-5.104,4.067-8.674,3.545c-3.553-0.512-6.896-3.261-8.761-6.652c-3.749-7.064-3.08-15.881-2.562-22.407
            c0.184-1.867,0.447-4.254,0.733-6.76c0.785-1.172,1.619-2.592,2.446-4.163c0.559-1.171,2.841-5.635,5.515-11.996
            c2.461-6.291,5.985-14.903,4.284-23.86c-0.948-4.355-3.599-8.391-7.427-10.201c-0.715-0.331-1.45-0.579-2.188-0.75
            c1.068,0.021,2.23,0.111,3.479,0.319c6.21,0.818,13.908,5.791,16.791,13.338c3.033,7.571,1.758,16.146-1.211,21.46
            c-2.896,5.484-6.662,8.061-7.478,8.781c-3.322,2.898-6.12,6.25-5.221,9.044c0.804,2.718,6.806,3.307,11.956-1.042
            c1.179-1.005,6.046-5.458,8.858-13.319c1.901-4.952,2.515-11.272,1.38-17.417c0.621,0.764,1.36,1.516,2.242,2.198
            c2.046,1.675,4.672,2.774,6.883,3.188c2.215,0.431,3.944,0.262,4.37,0.193c1.786-0.314,2.703-1.94,2.161-3.225
            C55.365,25.937,54.025,25.258,52.855,25.454z"/>
          <path fill="#274f07" d="M-14.467,-36.417c-2.172-1.281-4.505-2.245-6.903-2.922
            c-1.119-1.078-2.278-2.514-2.974-4.269c-0.905-2.035-1.173-4.247-1.066-5.906c0.1-1.674,0.496-2.808,0.538-3.112
            c0.194-1.172-0.482-2.51-1.792-3.054c-1.285-0.541-2.911,0.376-3.225,2.164c-0.068,0.425-0.237,2.154,0.192,4.369
            c0.413,2.21,1.514,4.837,3.188,6.882c0.684,0.881,1.436,1.622,2.199,2.243c-6.146-1.136-12.465-0.522-17.419,1.379
            c-7.86,2.812-12.313,7.678-13.317,8.857c-4.35,5.152-3.761,11.153-1.043,11.958c2.794,0.898,6.146-1.899,9.045-5.221
            c0.721-0.816,3.297-4.583,8.78-7.478c5.314-2.97,13.89-4.243,21.46-1.211c7.547,2.883,12.52,10.581,13.339,16.792
            c0.207,1.248,0.299,2.411,0.319,3.479c-0.171-0.74-0.42-1.475-0.75-2.19c-1.809-3.828-5.844-6.479-10.2-7.427
            c-8.958-1.7-17.57,1.824-23.859,4.285c-6.362,2.673-10.826,4.956-11.996,5.514c-1.573,0.827-2.992,1.661-4.165,2.446
            c-2.505,0.287-4.892,0.55-6.76,0.733c-6.525,0.519-15.343,1.188-22.406-2.562c-3.391-1.864-6.141-5.208-6.653-8.76
            c-0.522-3.57,1.056-7.221,3.546-8.675c2.635-1.248,5.445-1.117,6.903-0.231c1.339,0.893,1.229,2.06,1.237,2.26
            c0.004-0.2,0.219-1.364-1.129-2.422c-1.508-1.037-4.328-1.407-7.326-0.249c-2.965,1.475-4.956,5.347-4.67,9.465
            c0.335,4.221,3.168,8.131,6.904,10.562c6.066,3.724,13.071,4.394,19.064,4.475c-15.658,5.12-34.353,12.124-53.891,11.082
            c-21.186-0.485-41.262-8.601-53.486-18.108c-12.355-9.585-16.854-19.361-16.914-19.191c0.07-0.169,4.265,9.721,16.473,19.751
            c12.069,9.929,32.178,18.746,53.826,19.829c10.763,0.695,21.758-0.605,31.799-3.112c10.065-2.453,19.315-5.612,27.556-7.92
            c6.457-1.787,12.309-3.281,17.139-3.918c-1.701,2.53-2.406,5.622-1.357,8.73c1.293,3.047,4.241,5.196,7.348,4.984
            c3.254-0.374,4.703-3.341,4.897-5.402c0.347-2.233-1.044-4.072-2.308-4.267c-1.202-0.308-1.895-0.07-1.89-0.123
            c-0.013,0.049,0.72-0.104,1.823,0.308c1.16,0.332,2.165,2.024,1.668,3.974c-0.352,1.867-1.988,4.122-4.268,4.068
            c-2.217-0.018-4.476-2.055-5.116-4.3c-0.56-2.129,0.434-4.993,1.946-6.469c1.473-1.541,3.718-1.661,5.651-1.655
            c13.792,0.05,22.09,15.697,22.732,15.458c0.537-0.176,0.387-3.04-1.692-7.187c-1.979-4.085-6.789-9.379-13.82-11.488
            c-1.696-0.529-6.006-1.704-12.082-1.323c-0.391,0.021-1.459,0.136-2.945,0.306c1.698-0.909,3.704-1.959,5.941-3.069
            c5.92-2.799,13.927-6.553,21.86-5.555c3.831,0.54,7.589,2.691,9.327,5.83c1.756,3.153,1.575,7.125-0.237,9.369
            c-2.021,2.1-4.695,2.978-6.371,2.663c-1.57-0.359-1.881-1.49-1.96-1.672c0.067,0.186,0.277,1.352,1.914,1.864
            c1.778,0.435,4.547-0.22,6.938-2.368c0.975-1.052,1.616-2.459,1.893-4.021c0.593-1.81,1.207-4.487,1.173-7.925
            C-1.223,-21.093,-5.249,-31.451,-14.467,-36.417z"/>
        </g>
</svg>